<mxfile host="" modified="2020-05-31T13:19:59.416Z" agent="5.0 (Windows NT 10.0; Win64; x64) AppleWebKit/537.36 (KHTML, like Gecko) Code/1.45.1 Chrome/78.0.3904.130 Electron/7.2.4 Safari/537.36" etag="tmNLq0mySBnxLWjFcqIW" version="13.1.3">
    <diagram id="6hGFLwfOUW9BJ-s0fimq" name="Page-1">
        <mxGraphModel dx="1901" dy="1759" grid="1" gridSize="10" guides="1" tooltips="1" connect="1" arrows="1" fold="1" page="1" pageScale="1" pageWidth="1169" pageHeight="827" math="0" shadow="0">
            <root>
                <mxCell id="0"/>
                <mxCell id="1" parent="0"/>
                <mxCell id="83" value="2" style="endArrow=open;html=1;endSize=12;startArrow=diamondThin;startSize=14;startFill=1;edgeStyle=orthogonalEdgeStyle;align=left;verticalAlign=bottom;fontSize=12;exitX=0;exitY=0.5;exitDx=0;exitDy=0;entryX=0.5;entryY=0;entryDx=0;entryDy=0;" edge="1" parent="1" source="75" target="12">
                    <mxGeometry x="-0.9097" y="-17" relative="1" as="geometry">
                        <mxPoint x="420" y="-510" as="sourcePoint"/>
                        <mxPoint x="580" y="-510" as="targetPoint"/>
                        <mxPoint as="offset"/>
                    </mxGeometry>
                </mxCell>
                <mxCell id="85" value="1" style="text;html=1;align=center;verticalAlign=middle;resizable=0;points=[];autosize=1;" vertex="1" parent="1">
                    <mxGeometry x="210" y="-620" width="20" height="20" as="geometry"/>
                </mxCell>
                <mxCell id="86" value="2" style="endArrow=open;html=1;endSize=12;startArrow=diamondThin;startSize=14;startFill=1;edgeStyle=orthogonalEdgeStyle;align=left;verticalAlign=bottom;fontSize=12;exitX=1;exitY=0.5;exitDx=0;exitDy=0;entryX=0.471;entryY=-0.002;entryDx=0;entryDy=0;entryPerimeter=0;" edge="1" parent="1" source="74" target="26">
                    <mxGeometry x="-0.9548" y="13" relative="1" as="geometry">
                        <mxPoint x="1149.9999999999998" y="-800.0000000000002" as="sourcePoint"/>
                        <mxPoint x="870" y="-637" as="targetPoint"/>
                        <mxPoint as="offset"/>
                    </mxGeometry>
                </mxCell>
                <mxCell id="87" value="1" style="text;html=1;align=center;verticalAlign=middle;resizable=0;points=[];autosize=1;" vertex="1" parent="1">
                    <mxGeometry x="1010" y="-640" width="20" height="20" as="geometry"/>
                </mxCell>
                <mxCell id="88" value="1" style="endArrow=open;html=1;endSize=12;startArrow=diamondThin;startSize=14;startFill=1;edgeStyle=orthogonalEdgeStyle;align=left;verticalAlign=bottom;fontSize=12;exitX=1.001;exitY=0.837;exitDx=0;exitDy=0;exitPerimeter=0;entryX=0.119;entryY=-0.002;entryDx=0;entryDy=0;entryPerimeter=0;" edge="1" parent="1" source="17" target="2">
                    <mxGeometry x="-1" y="3" relative="1" as="geometry">
                        <mxPoint x="400" y="-480" as="sourcePoint"/>
                        <mxPoint x="760" y="-390" as="targetPoint"/>
                    </mxGeometry>
                </mxCell>
                <mxCell id="89" value="1" style="text;html=1;align=center;verticalAlign=middle;resizable=0;points=[];autosize=1;" vertex="1" parent="1">
                    <mxGeometry x="490" y="-380" width="20" height="20" as="geometry"/>
                </mxCell>
                <mxCell id="90" value="1" style="endArrow=open;html=1;endSize=12;startArrow=diamondThin;startSize=14;startFill=1;edgeStyle=orthogonalEdgeStyle;align=left;verticalAlign=bottom;fontSize=12;exitX=0;exitY=0.5;exitDx=0;exitDy=0;entryX=0.771;entryY=0.006;entryDx=0;entryDy=0;entryPerimeter=0;" edge="1" parent="1" source="29" target="2">
                    <mxGeometry x="-0.876" y="-3" relative="1" as="geometry">
                        <mxPoint x="600" y="-390" as="sourcePoint"/>
                        <mxPoint x="760" y="-390" as="targetPoint"/>
                        <mxPoint as="offset"/>
                    </mxGeometry>
                </mxCell>
                <mxCell id="92" value="1" style="text;html=1;align=center;verticalAlign=middle;resizable=0;points=[];autosize=1;" vertex="1" parent="1">
                    <mxGeometry x="680" y="-390" width="20" height="20" as="geometry"/>
                </mxCell>
                <mxCell id="93" value="*" style="endArrow=open;html=1;endSize=12;startArrow=diamondThin;startSize=14;startFill=0;edgeStyle=orthogonalEdgeStyle;align=left;verticalAlign=bottom;fontSize=12;exitX=0;exitY=0.5;exitDx=0;exitDy=0;entryX=0.214;entryY=-0.016;entryDx=0;entryDy=0;entryPerimeter=0;" edge="1" parent="1" source="73" target="52">
                    <mxGeometry x="-0.9754" y="-7" relative="1" as="geometry">
                        <mxPoint x="500" y="-430" as="sourcePoint"/>
                        <mxPoint x="660" y="-430" as="targetPoint"/>
                        <Array as="points">
                            <mxPoint x="60" y="-753"/>
                            <mxPoint x="60" y="-60"/>
                            <mxPoint x="514" y="-60"/>
                        </Array>
                        <mxPoint as="offset"/>
                    </mxGeometry>
                </mxCell>
                <mxCell id="94" value="*" style="endArrow=open;html=1;endSize=12;startArrow=diamondThin;startSize=14;startFill=0;edgeStyle=orthogonalEdgeStyle;align=left;verticalAlign=bottom;fontSize=12;entryX=0.647;entryY=-0.01;entryDx=0;entryDy=0;entryPerimeter=0;" edge="1" parent="1" source="66" target="42">
                    <mxGeometry x="-0.9754" y="-7" relative="1" as="geometry">
                        <mxPoint x="490.0000000000002" y="-743" as="sourcePoint"/>
                        <mxPoint x="524.2" y="8.624000000000251" as="targetPoint"/>
                        <Array as="points">
                            <mxPoint x="30" y="-790"/>
                            <mxPoint x="30" y="-30"/>
                            <mxPoint x="271" y="-30"/>
                        </Array>
                        <mxPoint as="offset"/>
                    </mxGeometry>
                </mxCell>
                <mxCell id="95" value="2" style="text;html=1;align=center;verticalAlign=middle;resizable=0;points=[];autosize=1;" vertex="1" parent="1">
                    <mxGeometry x="280" y="-20" width="20" height="20" as="geometry"/>
                </mxCell>
                <mxCell id="96" value="2" style="text;html=1;align=center;verticalAlign=middle;resizable=0;points=[];autosize=1;" vertex="1" parent="1">
                    <mxGeometry x="530" y="-20" width="20" height="20" as="geometry"/>
                </mxCell>
                <mxCell id="97" value="*" style="endArrow=open;html=1;endSize=12;startArrow=diamondThin;startSize=14;startFill=0;edgeStyle=orthogonalEdgeStyle;align=left;verticalAlign=bottom;fontSize=12;entryX=0.838;entryY=-0.043;entryDx=0;entryDy=0;entryPerimeter=0;" edge="1" parent="1" source="66" target="76">
                    <mxGeometry x="-0.9854" y="5" relative="1" as="geometry">
                        <mxPoint x="1250" y="-818.81" as="sourcePoint"/>
                        <mxPoint x="1284.2000000000003" y="-67.18600000000015" as="targetPoint"/>
                        <Array as="points">
                            <mxPoint x="1240" y="-765"/>
                            <mxPoint x="1240" y="-70"/>
                            <mxPoint x="1115" y="-70"/>
                        </Array>
                        <mxPoint as="offset"/>
                    </mxGeometry>
                </mxCell>
                <mxCell id="98" value="2" style="text;html=1;align=center;verticalAlign=middle;resizable=0;points=[];autosize=1;" vertex="1" parent="1">
                    <mxGeometry x="1080" y="-20" width="20" height="20" as="geometry"/>
                </mxCell>
                <mxCell id="99" value="*" style="endArrow=open;html=1;endSize=12;startArrow=diamondThin;startSize=14;startFill=0;edgeStyle=orthogonalEdgeStyle;align=left;verticalAlign=bottom;fontSize=12;entryX=0.25;entryY=0;entryDx=0;entryDy=0;exitX=1;exitY=0.106;exitDx=0;exitDy=0;exitPerimeter=0;" edge="1" parent="1" source="10" target="76">
                    <mxGeometry x="-0.9854" y="5" relative="1" as="geometry">
                        <mxPoint x="810" y="-117.99999999999977" as="sourcePoint"/>
                        <mxPoint x="1164.6400000000003" y="643.3020000000001" as="targetPoint"/>
                        <Array as="points">
                            <mxPoint x="950" y="-167"/>
                        </Array>
                        <mxPoint as="offset"/>
                    </mxGeometry>
                </mxCell>
                <mxCell id="100" value="1" style="text;html=1;align=center;verticalAlign=middle;resizable=0;points=[];autosize=1;" vertex="1" parent="1">
                    <mxGeometry x="960" y="-20" width="20" height="20" as="geometry"/>
                </mxCell>
                <mxCell id="101" value="*" style="endArrow=open;html=1;endSize=12;startArrow=diamondThin;startSize=14;startFill=0;edgeStyle=orthogonalEdgeStyle;align=left;verticalAlign=bottom;fontSize=12;entryX=0.137;entryY=-0.043;entryDx=0;entryDy=0;exitX=0.824;exitY=0.975;exitDx=0;exitDy=0;exitPerimeter=0;entryPerimeter=0;" edge="1" parent="1" source="20" target="76">
                    <mxGeometry x="-0.9433" y="9" relative="1" as="geometry">
                        <mxPoint x="280" y="-206.00400000000013" as="sourcePoint"/>
                        <mxPoint x="500" y="-38.75999999999999" as="targetPoint"/>
                        <Array as="points">
                            <mxPoint x="271" y="-90"/>
                            <mxPoint x="918" y="-90"/>
                        </Array>
                        <mxPoint as="offset"/>
                    </mxGeometry>
                </mxCell>
                <mxCell id="42" value="DoubleValidator" style="swimlane;fontStyle=5;align=center;verticalAlign=top;childLayout=stackLayout;horizontal=1;startSize=26;horizontalStack=0;resizeParent=1;resizeParentMax=0;resizeLast=0;collapsible=1;marginBottom=0;" vertex="1" parent="1">
                    <mxGeometry x="90" width="280" height="138" as="geometry"/>
                </mxCell>
                <mxCell id="43" value="- IsValuePositive(double): bool" style="text;strokeColor=none;fillColor=none;align=left;verticalAlign=top;spacingLeft=4;spacingRight=4;overflow=hidden;rotatable=0;points=[[0,0.5],[1,0.5]];portConstraint=eastwest;fontStyle=4" vertex="1" parent="42">
                    <mxGeometry y="26" width="280" height="26" as="geometry"/>
                </mxCell>
                <mxCell id="44" value="- IsValueInRange(double, double, double): bool" style="text;strokeColor=none;fillColor=none;align=left;verticalAlign=top;spacingLeft=4;spacingRight=4;overflow=hidden;rotatable=0;points=[[0,0.5],[1,0.5]];portConstraint=eastwest;fontStyle=4" vertex="1" parent="42">
                    <mxGeometry y="52" width="280" height="26" as="geometry"/>
                </mxCell>
                <mxCell id="45" value="" style="line;strokeWidth=1;fillColor=none;align=left;verticalAlign=middle;spacingTop=-1;spacingLeft=3;spacingRight=3;rotatable=0;labelPosition=right;points=[];portConstraint=eastwest;fontStyle=4" vertex="1" parent="42">
                    <mxGeometry y="78" width="280" height="8" as="geometry"/>
                </mxCell>
                <mxCell id="46" value="+ AssertPositiveValue(double): void" style="text;strokeColor=none;fillColor=none;align=left;verticalAlign=top;spacingLeft=4;spacingRight=4;overflow=hidden;rotatable=0;points=[[0,0.5],[1,0.5]];portConstraint=eastwest;fontStyle=4" vertex="1" parent="42">
                    <mxGeometry y="86" width="280" height="26" as="geometry"/>
                </mxCell>
                <mxCell id="47" value="+ AssertValueInRange(double): void" style="text;strokeColor=none;fillColor=none;align=left;verticalAlign=top;spacingLeft=4;spacingRight=4;overflow=hidden;rotatable=0;points=[[0,0.5],[1,0.5]];portConstraint=eastwest;fontStyle=4" vertex="1" parent="42">
                    <mxGeometry y="112" width="280" height="26" as="geometry"/>
                </mxCell>
                <mxCell id="12" value="RectangleClass" style="swimlane;fontStyle=1;align=center;verticalAlign=top;childLayout=stackLayout;horizontal=1;startSize=26;horizontalStack=0;resizeParent=1;resizeParentMax=0;resizeLast=0;collapsible=1;marginBottom=0;" vertex="1" parent="1">
                    <mxGeometry x="90" y="-590" width="220" height="294" as="geometry"/>
                </mxCell>
                <mxCell id="16" value="- Length: double" style="text;strokeColor=none;fillColor=none;align=left;verticalAlign=top;spacingLeft=4;spacingRight=4;overflow=hidden;rotatable=0;points=[[0,0.5],[1,0.5]];portConstraint=eastwest;" vertex="1" parent="12">
                    <mxGeometry y="26" width="220" height="26" as="geometry"/>
                </mxCell>
                <mxCell id="13" value="- Width: double" style="text;strokeColor=none;fillColor=none;align=left;verticalAlign=top;spacingLeft=4;spacingRight=4;overflow=hidden;rotatable=0;points=[[0,0.5],[1,0.5]];portConstraint=eastwest;" vertex="1" parent="12">
                    <mxGeometry y="52" width="220" height="26" as="geometry"/>
                </mxCell>
                <mxCell id="17" value="- point: Point" style="text;strokeColor=none;fillColor=none;align=left;verticalAlign=top;spacingLeft=4;spacingRight=4;overflow=hidden;rotatable=0;points=[[0,0.5],[1,0.5]];portConstraint=eastwest;" vertex="1" parent="12">
                    <mxGeometry y="78" width="220" height="26" as="geometry"/>
                </mxCell>
                <mxCell id="14" value="" style="line;strokeWidth=1;fillColor=none;align=left;verticalAlign=middle;spacingTop=-1;spacingLeft=3;spacingRight=3;rotatable=0;labelPosition=right;points=[];portConstraint=eastwest;" vertex="1" parent="12">
                    <mxGeometry y="104" width="220" height="8" as="geometry"/>
                </mxCell>
                <mxCell id="18" value="+ ReadRectangleFromConsole(): void" style="text;strokeColor=none;fillColor=none;align=left;verticalAlign=top;spacingLeft=4;spacingRight=4;overflow=hidden;rotatable=0;points=[[0,0.5],[1,0.5]];portConstraint=eastwest;" vertex="1" parent="12">
                    <mxGeometry y="112" width="220" height="26" as="geometry"/>
                </mxCell>
                <mxCell id="15" value="+ WriteRectangleFromConsole(): void" style="text;strokeColor=none;fillColor=none;align=left;verticalAlign=top;spacingLeft=4;spacingRight=4;overflow=hidden;rotatable=0;points=[[0,0.5],[1,0.5]];portConstraint=eastwest;" vertex="1" parent="12">
                    <mxGeometry y="138" width="220" height="26" as="geometry"/>
                </mxCell>
                <mxCell id="19" value="+ DemoRectangleWithPoint(): void" style="text;strokeColor=none;fillColor=none;align=left;verticalAlign=top;spacingLeft=4;spacingRight=4;overflow=hidden;rotatable=0;points=[[0,0.5],[1,0.5]];portConstraint=eastwest;" vertex="1" parent="12">
                    <mxGeometry y="164" width="220" height="26" as="geometry"/>
                </mxCell>
                <mxCell id="21" value="+ GetLength(): double" style="text;strokeColor=none;fillColor=none;align=left;verticalAlign=top;spacingLeft=4;spacingRight=4;overflow=hidden;rotatable=0;points=[[0,0.5],[1,0.5]];portConstraint=eastwest;" vertex="1" parent="12">
                    <mxGeometry y="190" width="220" height="26" as="geometry"/>
                </mxCell>
                <mxCell id="23" value="+ GetPointY(): double" style="text;strokeColor=none;fillColor=none;align=left;verticalAlign=top;spacingLeft=4;spacingRight=4;overflow=hidden;rotatable=0;points=[[0,0.5],[1,0.5]];portConstraint=eastwest;" vertex="1" parent="12">
                    <mxGeometry y="216" width="220" height="26" as="geometry"/>
                </mxCell>
                <mxCell id="22" value="+ GetPointX(): double" style="text;strokeColor=none;fillColor=none;align=left;verticalAlign=top;spacingLeft=4;spacingRight=4;overflow=hidden;rotatable=0;points=[[0,0.5],[1,0.5]];portConstraint=eastwest;" vertex="1" parent="12">
                    <mxGeometry y="242" width="220" height="26" as="geometry"/>
                </mxCell>
                <mxCell id="20" value="+ GetLength(): double" style="text;strokeColor=none;fillColor=none;align=left;verticalAlign=top;spacingLeft=4;spacingRight=4;overflow=hidden;rotatable=0;points=[[0,0.5],[1,0.5]];portConstraint=eastwest;" vertex="1" parent="12">
                    <mxGeometry y="268" width="220" height="26" as="geometry"/>
                </mxCell>
                <mxCell id="52" value="CollisionManager" style="swimlane;fontStyle=5;align=center;verticalAlign=top;childLayout=stackLayout;horizontal=1;startSize=26;horizontalStack=0;resizeParent=1;resizeParentMax=0;resizeLast=0;collapsible=1;marginBottom=0;" vertex="1" parent="1">
                    <mxGeometry x="450" width="300" height="86" as="geometry"/>
                </mxCell>
                <mxCell id="55" value="" style="line;strokeWidth=1;fillColor=none;align=left;verticalAlign=middle;spacingTop=-1;spacingLeft=3;spacingRight=3;rotatable=0;labelPosition=right;points=[];portConstraint=eastwest;fontStyle=4" vertex="1" parent="52">
                    <mxGeometry y="26" width="300" height="8" as="geometry"/>
                </mxCell>
                <mxCell id="56" value="+ IsCollision(RectangleClass. RectangleClass): bool" style="text;strokeColor=none;fillColor=none;align=left;verticalAlign=top;spacingLeft=4;spacingRight=4;overflow=hidden;rotatable=0;points=[[0,0.5],[1,0.5]];portConstraint=eastwest;fontStyle=4" vertex="1" parent="52">
                    <mxGeometry y="34" width="300" height="26" as="geometry"/>
                </mxCell>
                <mxCell id="57" value="+ IsCollision(Ring, Ring): bool" style="text;strokeColor=none;fillColor=none;align=left;verticalAlign=top;spacingLeft=4;spacingRight=4;overflow=hidden;rotatable=0;points=[[0,0.5],[1,0.5]];portConstraint=eastwest;fontStyle=4" vertex="1" parent="52">
                    <mxGeometry y="60" width="300" height="26" as="geometry"/>
                </mxCell>
                <mxCell id="2" value="Point" style="swimlane;fontStyle=1;align=center;verticalAlign=top;childLayout=stackLayout;horizontal=1;startSize=26;horizontalStack=0;resizeParent=1;resizeParentMax=0;resizeLast=0;collapsible=1;marginBottom=0;" vertex="1" parent="1">
                    <mxGeometry x="450" y="-360" width="280" height="242" as="geometry"/>
                </mxCell>
                <mxCell id="3" value="- X: double" style="text;strokeColor=none;fillColor=none;align=left;verticalAlign=top;spacingLeft=4;spacingRight=4;overflow=hidden;rotatable=0;points=[[0,0.5],[1,0.5]];portConstraint=eastwest;" vertex="1" parent="2">
                    <mxGeometry y="26" width="280" height="26" as="geometry"/>
                </mxCell>
                <mxCell id="7" value="- Y: double" style="text;strokeColor=none;fillColor=none;align=left;verticalAlign=top;spacingLeft=4;spacingRight=4;overflow=hidden;rotatable=0;points=[[0,0.5],[1,0.5]];portConstraint=eastwest;" vertex="1" parent="2">
                    <mxGeometry y="52" width="280" height="26" as="geometry"/>
                </mxCell>
                <mxCell id="4" value="" style="line;strokeWidth=1;fillColor=none;align=left;verticalAlign=middle;spacingTop=-1;spacingLeft=3;spacingRight=3;rotatable=0;labelPosition=right;points=[];portConstraint=eastwest;" vertex="1" parent="2">
                    <mxGeometry y="78" width="280" height="8" as="geometry"/>
                </mxCell>
                <mxCell id="6" value="+ GetX(): double" style="text;strokeColor=none;fillColor=none;align=left;verticalAlign=top;spacingLeft=4;spacingRight=4;overflow=hidden;rotatable=0;points=[[0,0.5],[1,0.5]];portConstraint=eastwest;" vertex="1" parent="2">
                    <mxGeometry y="86" width="280" height="26" as="geometry"/>
                </mxCell>
                <mxCell id="8" value="+ GetY(): double" style="text;strokeColor=none;fillColor=none;align=left;verticalAlign=top;spacingLeft=4;spacingRight=4;overflow=hidden;rotatable=0;points=[[0,0.5],[1,0.5]];portConstraint=eastwest;" vertex="1" parent="2">
                    <mxGeometry y="112" width="280" height="26" as="geometry"/>
                </mxCell>
                <mxCell id="9" value="+ WritePointFromConsole(): void" style="text;strokeColor=none;fillColor=none;align=left;verticalAlign=top;spacingLeft=4;spacingRight=4;overflow=hidden;rotatable=0;points=[[0,0.5],[1,0.5]];portConstraint=eastwest;" vertex="1" parent="2">
                    <mxGeometry y="138" width="280" height="26" as="geometry"/>
                </mxCell>
                <mxCell id="5" value="- ReadPointFromConsole(double, double): void" style="text;strokeColor=none;fillColor=none;align=left;verticalAlign=top;spacingLeft=4;spacingRight=4;overflow=hidden;rotatable=0;points=[[0,0.5],[1,0.5]];portConstraint=eastwest;" vertex="1" parent="2">
                    <mxGeometry y="164" width="280" height="26" as="geometry"/>
                </mxCell>
                <mxCell id="10" value="+ Point();" style="text;strokeColor=none;fillColor=none;align=left;verticalAlign=top;spacingLeft=4;spacingRight=4;overflow=hidden;rotatable=0;points=[[0,0.5],[1,0.5]];portConstraint=eastwest;" vertex="1" parent="2">
                    <mxGeometry y="190" width="280" height="26" as="geometry"/>
                </mxCell>
                <mxCell id="11" value="+ Point(double, double);" style="text;strokeColor=none;fillColor=none;align=left;verticalAlign=top;spacingLeft=4;spacingRight=4;overflow=hidden;rotatable=0;points=[[0,0.5],[1,0.5]];portConstraint=eastwest;" vertex="1" parent="2">
                    <mxGeometry y="216" width="280" height="26" as="geometry"/>
                </mxCell>
                <mxCell id="26" value="Ring" style="swimlane;fontStyle=1;align=center;verticalAlign=top;childLayout=stackLayout;horizontal=1;startSize=26;horizontalStack=0;resizeParent=1;resizeParentMax=0;resizeLast=0;collapsible=1;marginBottom=0;" vertex="1" parent="1">
                    <mxGeometry x="860" y="-604" width="300" height="398" as="geometry"/>
                </mxCell>
                <mxCell id="27" value="-AllRingsCount: int" style="text;strokeColor=none;fillColor=none;align=left;verticalAlign=top;spacingLeft=4;spacingRight=4;overflow=hidden;rotatable=0;points=[[0,0.5],[1,0.5]];portConstraint=eastwest;fontStyle=4;strokeWidth=5;fontSize=12;" vertex="1" parent="26">
                    <mxGeometry y="26" width="300" height="26" as="geometry"/>
                </mxCell>
                <mxCell id="28" value="- _outerRadius: double" style="text;strokeColor=none;fillColor=none;align=left;verticalAlign=top;spacingLeft=4;spacingRight=4;overflow=hidden;rotatable=0;points=[[0,0.5],[1,0.5]];portConstraint=eastwest;" vertex="1" parent="26">
                    <mxGeometry y="52" width="300" height="26" as="geometry"/>
                </mxCell>
                <mxCell id="38" value="- _innerRadius: double" style="text;strokeColor=none;fillColor=none;align=left;verticalAlign=top;spacingLeft=4;spacingRight=4;overflow=hidden;rotatable=0;points=[[0,0.5],[1,0.5]];portConstraint=eastwest;" vertex="1" parent="26">
                    <mxGeometry y="78" width="300" height="26" as="geometry"/>
                </mxCell>
                <mxCell id="29" value="- _center: Point" style="text;strokeColor=none;fillColor=none;align=left;verticalAlign=top;spacingLeft=4;spacingRight=4;overflow=hidden;rotatable=0;points=[[0,0.5],[1,0.5]];portConstraint=eastwest;" vertex="1" parent="26">
                    <mxGeometry y="104" width="300" height="26" as="geometry"/>
                </mxCell>
                <mxCell id="30" value="" style="line;strokeWidth=1;fillColor=none;align=left;verticalAlign=middle;spacingTop=-1;spacingLeft=3;spacingRight=3;rotatable=0;labelPosition=right;points=[];portConstraint=eastwest;" vertex="1" parent="26">
                    <mxGeometry y="130" width="300" height="8" as="geometry"/>
                </mxCell>
                <mxCell id="31" value="+ ReadRingFromConsole(Point, double, double): void" style="text;strokeColor=none;fillColor=none;align=left;verticalAlign=top;spacingLeft=4;spacingRight=4;overflow=hidden;rotatable=0;points=[[0,0.5],[1,0.5]];portConstraint=eastwest;" vertex="1" parent="26">
                    <mxGeometry y="138" width="300" height="26" as="geometry"/>
                </mxCell>
                <mxCell id="32" value="+ WriteRectangleFromConsole(): void" style="text;strokeColor=none;fillColor=none;align=left;verticalAlign=top;spacingLeft=4;spacingRight=4;overflow=hidden;rotatable=0;points=[[0,0.5],[1,0.5]];portConstraint=eastwest;" vertex="1" parent="26">
                    <mxGeometry y="164" width="300" height="26" as="geometry"/>
                </mxCell>
                <mxCell id="33" value="+ GetAllRingsCount: int" style="text;strokeColor=none;fillColor=none;align=left;verticalAlign=top;spacingLeft=4;spacingRight=4;overflow=hidden;rotatable=0;points=[[0,0.5],[1,0.5]];portConstraint=eastwest;fontStyle=4" vertex="1" parent="26">
                    <mxGeometry y="190" width="300" height="26" as="geometry"/>
                </mxCell>
                <mxCell id="34" value="+ GetOuterRadius(): double" style="text;strokeColor=none;fillColor=none;align=left;verticalAlign=top;spacingLeft=4;spacingRight=4;overflow=hidden;rotatable=0;points=[[0,0.5],[1,0.5]];portConstraint=eastwest;" vertex="1" parent="26">
                    <mxGeometry y="216" width="300" height="26" as="geometry"/>
                </mxCell>
                <mxCell id="36" value="+ GetPointX(): double" style="text;strokeColor=none;fillColor=none;align=left;verticalAlign=top;spacingLeft=4;spacingRight=4;overflow=hidden;rotatable=0;points=[[0,0.5],[1,0.5]];portConstraint=eastwest;" vertex="1" parent="26">
                    <mxGeometry y="242" width="300" height="26" as="geometry"/>
                </mxCell>
                <mxCell id="35" value="+ GetPointY(): double" style="text;strokeColor=none;fillColor=none;align=left;verticalAlign=top;spacingLeft=4;spacingRight=4;overflow=hidden;rotatable=0;points=[[0,0.5],[1,0.5]];portConstraint=eastwest;" vertex="1" parent="26">
                    <mxGeometry y="268" width="300" height="26" as="geometry"/>
                </mxCell>
                <mxCell id="37" value="+ GetArea(): double" style="text;strokeColor=none;fillColor=none;align=left;verticalAlign=top;spacingLeft=4;spacingRight=4;overflow=hidden;rotatable=0;points=[[0,0.5],[1,0.5]];portConstraint=eastwest;" vertex="1" parent="26">
                    <mxGeometry y="294" width="300" height="26" as="geometry"/>
                </mxCell>
                <mxCell id="39" value="+ Ring();" style="text;strokeColor=none;fillColor=none;align=left;verticalAlign=top;spacingLeft=4;spacingRight=4;overflow=hidden;rotatable=0;points=[[0,0.5],[1,0.5]];portConstraint=eastwest;" vertex="1" parent="26">
                    <mxGeometry y="320" width="300" height="26" as="geometry"/>
                </mxCell>
                <mxCell id="40" value="+ Ring(Point, double, double);" style="text;strokeColor=none;fillColor=none;align=left;verticalAlign=top;spacingLeft=4;spacingRight=4;overflow=hidden;rotatable=0;points=[[0,0.5],[1,0.5]];portConstraint=eastwest;" vertex="1" parent="26">
                    <mxGeometry y="346" width="300" height="26" as="geometry"/>
                </mxCell>
                <mxCell id="41" value="+ ~Ring();" style="text;strokeColor=none;fillColor=none;align=left;verticalAlign=top;spacingLeft=4;spacingRight=4;overflow=hidden;rotatable=0;points=[[0,0.5],[1,0.5]];portConstraint=eastwest;" vertex="1" parent="26">
                    <mxGeometry y="372" width="300" height="26" as="geometry"/>
                </mxCell>
                <mxCell id="76" value="CheckInput" style="swimlane;fontStyle=5;align=center;verticalAlign=top;childLayout=stackLayout;horizontal=1;startSize=26;horizontalStack=0;resizeParent=1;resizeParentMax=0;resizeLast=0;collapsible=1;marginBottom=0;" vertex="1" parent="1">
                    <mxGeometry x="880" width="280" height="86" as="geometry"/>
                </mxCell>
                <mxCell id="79" value="" style="line;strokeWidth=1;fillColor=none;align=left;verticalAlign=middle;spacingTop=-1;spacingLeft=3;spacingRight=3;rotatable=0;labelPosition=right;points=[];portConstraint=eastwest;fontStyle=4" vertex="1" parent="76">
                    <mxGeometry y="26" width="280" height="8" as="geometry"/>
                </mxCell>
                <mxCell id="80" value="+ CheckInputInt(int*): void" style="text;strokeColor=none;fillColor=none;align=left;verticalAlign=top;spacingLeft=4;spacingRight=4;overflow=hidden;rotatable=0;points=[[0,0.5],[1,0.5]];portConstraint=eastwest;fontStyle=4" vertex="1" parent="76">
                    <mxGeometry y="34" width="280" height="26" as="geometry"/>
                </mxCell>
                <mxCell id="81" value="+ CheckInputDouble(double*): void" style="text;strokeColor=none;fillColor=none;align=left;verticalAlign=top;spacingLeft=4;spacingRight=4;overflow=hidden;rotatable=0;points=[[0,0.5],[1,0.5]];portConstraint=eastwest;fontStyle=4" vertex="1" parent="76">
                    <mxGeometry y="60" width="280" height="26" as="geometry"/>
                </mxCell>
                <mxCell id="66" value="GeometricProgram" style="swimlane;fontStyle=1;align=center;verticalAlign=top;childLayout=stackLayout;horizontal=1;startSize=26;horizontalStack=0;resizeParent=1;resizeParentMax=0;resizeLast=0;collapsible=1;marginBottom=0;" vertex="1" parent="1">
                    <mxGeometry x="480" y="-800" width="280" height="112" as="geometry"/>
                </mxCell>
                <mxCell id="69" value="" style="line;strokeWidth=1;fillColor=none;align=left;verticalAlign=middle;spacingTop=-1;spacingLeft=3;spacingRight=3;rotatable=0;labelPosition=right;points=[];portConstraint=eastwest;" vertex="1" parent="66">
                    <mxGeometry y="26" width="280" height="8" as="geometry"/>
                </mxCell>
                <mxCell id="73" value="+ DemoCollision(): void" style="text;strokeColor=none;fillColor=none;align=left;verticalAlign=top;spacingLeft=4;spacingRight=4;overflow=hidden;rotatable=0;points=[[0,0.5],[1,0.5]];portConstraint=eastwest;" vertex="1" parent="66">
                    <mxGeometry y="34" width="280" height="26" as="geometry"/>
                </mxCell>
                <mxCell id="74" value="+ DemoRectangleWithPoint():" style="text;strokeColor=none;fillColor=none;align=left;verticalAlign=top;spacingLeft=4;spacingRight=4;overflow=hidden;rotatable=0;points=[[0,0.5],[1,0.5]];portConstraint=eastwest;" vertex="1" parent="66">
                    <mxGeometry y="60" width="280" height="26" as="geometry"/>
                </mxCell>
                <mxCell id="75" value="+ DemoRing(): void" style="text;strokeColor=none;fillColor=none;align=left;verticalAlign=top;spacingLeft=4;spacingRight=4;overflow=hidden;rotatable=0;points=[[0,0.5],[1,0.5]];portConstraint=eastwest;" vertex="1" parent="66">
                    <mxGeometry y="86" width="280" height="26" as="geometry"/>
                </mxCell>
            </root>
        </mxGraphModel>
    </diagram>
</mxfile>